<svg xmlns="http://www.w3.org/2000/svg" width="32" height="48" fill="none"><path fill="#906FCC" d="M32 16c0 7.856-7.904 22.294-13.875 29.618a2.712 2.712 0 0 1-4.25 0C7.905 38.294 0 23.856 0 16 0 7.163 7.163 0 16 0s16 7.163 16 16Z"/><path fill="#fff" d="M11.533 14.737a15.11 15.11 0 0 0-.317.67 19.529 19.529 0 0 0-.671 1.631 10.59 10.59 0 0 0-.454 1.634l-.013.071c-.05.323-.083.646-.102.97a3.167 3.167 0 0 0 .108 1.01l-.005-.023c.046.246.166.46.335.62v.001c.165.142.38.23.615.233a1.066 1.066 0 0 0 .362-.02l-.007.002.336-.075c.316-.092.59-.213.846-.363l-.017.009c.255-.15.507-.311.755-.485a.803.803 0 0 1 .18-.082l.006-.002a.33.33 0 0 1 .207.01h-.002c.126.042.22.147.248.277v.002a.31.31 0 0 1-.12.335c-.363.276-.77.536-1.201.76l-.048.023c-.418.217-.91.347-1.433.354h-.002a1.687 1.687 0 0 1-1.086-.314l.005.003a1.852 1.852 0 0 1-.649-.909l-.004-.013a3.03 3.03 0 0 1-.186-.925v-.006a5.828 5.828 0 0 1 .04-.96l-.003.028c.12-.992.353-1.895.688-2.747l-.026.076c.391-1.007.777-1.83 1.207-2.627l-.06.123a.464.464 0 0 0 .055-.204.645.645 0 0 0-.039-.21l.002.004c-.112-.31-.218-.621-.317-.932l-.298-.932a.174.174 0 0 0-.062-.124.194.194 0 0 0-.14-.01c-.422.1-.838.215-1.248.345a6.14 6.14 0 0 0-1.205.528l.03-.015c-.16.093-.297.189-.425.293l.006-.004a5.046 5.046 0 0 0-.382.344 1 1 0 0 0-.298.63v.031c0 .244.084.469.226.646l-.002-.002c.133.207.294.382.48.527l.005.004c.186.143.379.276.577.4.075.038.143.075.206.112l.186.112a.44.44 0 0 1 .192.23v.003a.318.318 0 0 1-.029.272v-.002a.337.337 0 0 1-.22.186l-.003.001a.424.424 0 0 1-.3-.038l.002.001a5.45 5.45 0 0 1-.83-.492l.016.011c-.265-.19-.497-.399-.704-.63l-.004-.004a2.644 2.644 0 0 1-.328-.483l-.007-.014a1.945 1.945 0 0 1-.185-.538l-.002-.012a1.595 1.595 0 0 1 .049-.716l-.003.012c.076-.242.187-.453.33-.638l-.004.005a2.82 2.82 0 0 1 .516-.527l.006-.005a3.7 3.7 0 0 1 .612-.39l.022-.01a7.417 7.417 0 0 1 1.166-.507l.054-.016c.415-.137.84-.255 1.277-.354a.782.782 0 0 1 .097-.027h.006a.868.868 0 0 0 .108-.03l-.006.002a4.656 4.656 0 0 1-.063-.336 20.313 20.313 0 0 1-.046-.335 11.357 11.357 0 0 1-.139-1.373v-.025a4.53 4.53 0 0 1 .166-1.411l-.008.032c.04-.202.098-.38.174-.547l-.006.015c.082-.181.181-.338.3-.478l-.002.003c.215-.26.503-.452.833-.545l.012-.003a2.094 2.094 0 0 1 1.03.013l-.015-.004c.377.092.708.233 1.01.419l-.016-.009c.34.21.63.413.905.63l-.02-.014c.071.066.117.158.124.26l.001.024c0 .094-.04.178-.103.238a.356.356 0 0 1-.232.13h-.002a.371.371 0 0 1-.271-.075h.001c-.15-.099-.292-.198-.429-.297a4.83 4.83 0 0 0-.405-.267l-.023-.013a2.539 2.539 0 0 0-.495-.237l-.018-.005a1.744 1.744 0 0 0-.57-.094H11.915a.936.936 0 0 0-.43.105l.005-.002a.868.868 0 0 0-.324.303l-.002.004c-.117.15-.207.328-.258.52l-.002.01c-.044.162-.084.362-.11.565l-.002.023a6.015 6.015 0 0 0-.007 1.302l-.002-.025c.05.487.119.916.21 1.337l-.014-.079v.007a.1.1 0 0 0 .037.077.148.148 0 0 0 .088.028h.006a72.493 72.493 0 0 1 2.031-.187c.07-.01.133-.03.19-.057l-.004.001a.466.466 0 0 0 .148-.13h.001c.457-.586.909-1.105 1.385-1.6l-.006.006c.48-.498.998-.954 1.55-1.365l.034-.024c.279-.214.595-.43.924-.627l.046-.025c.31-.187.67-.346 1.048-.458l.033-.009c.212-.07.457-.117.71-.13h.008a1.91 1.91 0 0 1 .75.116l-.014-.004c.286.09.526.255.706.473l.002.002c.173.22.307.477.388.758l.003.016c.095.284.15.61.15.95v.008c0 .332-.02.66-.06.981l.004-.038c-.012.087-.025.17-.038.248a2.071 2.071 0 0 1-.06.263l.004-.014a.32.32 0 0 1-.138.232h-.002a.372.372 0 0 1-.272.063h.002a.357.357 0 0 1-.317-.412v.002c.012-.15.03-.301.056-.457.023-.137.037-.295.037-.456a4.073 4.073 0 0 0 0-.563v.013a4.315 4.315 0 0 0-.079-.577l.005.028a1.062 1.062 0 0 0-.48-.752l-.005-.003a1.239 1.239 0 0 0-.941-.082l.01-.002a3.376 3.376 0 0 0-.822.29l.02-.01c-.25.124-.498.26-.746.41a10.47 10.47 0 0 0-1.366 1.085l.005-.005c-.422.398-.826.814-1.211 1.25a4.397 4.397 0 0 0-.224.241 24.81 24.81 0 0 0-.205.242v.003c0 .01-.004.019-.01.025a.071.071 0 0 0-.008.047l.205-.001c1.058.013 2.085.088 3.094.22l-.131-.015c1.11.144 2.1.359 3.057.65l-.132-.035c.54.151.982.307 1.413.486l-.08-.03c.498.205.918.421 1.317.667l-.04-.023c.23.15.427.296.615.455l-.009-.008c.195.164.369.342.526.534l.006.007c.278.332.448.764.448 1.235l-.001.063V14.7c-.04.486-.261.913-.595 1.22h-.002a3.783 3.783 0 0 1-.802.612l-.018.01c-.266.152-.58.298-.904.42l-.046.015a.379.379 0 0 1-.264-.02h.003a.342.342 0 0 1-.186-.202v-.002a.334.334 0 0 1 0-.273v.003a.405.405 0 0 1 .202-.213l.002-.001c.149-.075.301-.146.456-.214.17-.075.313-.153.448-.241l-.012.008a2.79 2.79 0 0 0 .35-.247l-.006.004c.106-.087.21-.18.311-.28.176-.17.293-.4.316-.657v-.01c0-.258-.09-.495-.242-.68l.002.002a2.427 2.427 0 0 0-.431-.463l-.005-.003a4.41 4.41 0 0 0-.51-.362l-.02-.011a7.465 7.465 0 0 0-1.356-.691l-.052-.018c-.38-.152-.88-.318-1.39-.458l-.11-.026a23.936 23.936 0 0 0-1.612-.354 13.357 13.357 0 0 0-1.584-.202l-.046-.003a66.444 66.444 0 0 0-1.314-.062c-.442-.017-.88-.032-1.315-.047h-.007a.489.489 0 0 0-.164.03l.004-.002a.2.2 0 0 0-.111.101l-.001.001-.793 1.188c-.261.398-.516.795-.765 1.193a.174.174 0 0 0-.046.102.258.258 0 0 0 .009.124v-.002c.223.51.456 1.012.698 1.51.243.496.507.984.792 1.462.286.479.587.944.904 1.398.317.453.655.891 1.015 1.313.318.367.637.702.973 1.02l.006.005c.33.312.692.594 1.08.84l.03.017c.168.114.36.22.563.308l.024.009c.189.083.408.136.638.149h.005a.986.986 0 0 0 .556-.115l-.006.003c.162-.094.292-.227.38-.387l.003-.005c.092-.147.166-.318.211-.5l.003-.012c.039-.154.075-.347.1-.543l.003-.025a7.3 7.3 0 0 0-.08-1.841l.005.043c-.1-.59-.224-1.178-.373-1.761a20.803 20.803 0 0 0-.596-1.752 29.404 29.404 0 0 0-.727-1.697.582.582 0 0 1-.06-.136l-.002-.004a.215.215 0 0 1-.009-.141v.001-.004c0-.087.036-.164.094-.22.058-.06.135-.1.221-.111h.002a.362.362 0 0 1 .226.038h-.002c.076.04.135.104.167.183v.002c.087.199.18.4.28.606.1.205.193.412.28.621.26.634.497 1.28.708 1.938.188.558.356 1.235.473 1.93l.012.083c.067.407.12.903.147 1.408l.001.037a5.213 5.213 0 0 1-.138 1.48l.007-.035c-.024.1-.056.203-.093.31a2.648 2.648 0 0 1-.137.327l.007-.016a1.772 1.772 0 0 1-.81.88l-.01.006a1.755 1.755 0 0 1-1.224.119l.012.002a3.222 3.222 0 0 1-1.008-.39l.014.009a8.273 8.273 0 0 1-.902-.62l.017.014c-.53-.418-.998-.863-1.424-1.349l-.011-.012a20.904 20.904 0 0 1-1.23-1.546 20.036 20.036 0 0 1-1.146-1.795l-.053-.102a24.605 24.605 0 0 1-1.016-2.022l-.038-.075-.063-.107Zm-.372-3.281.465 1.529a43.062 43.062 0 0 1 1.118-1.697l-1.583.168Zm4.23 3.914h-.013c-.298 0-.567-.12-.761-.317a.964.964 0 0 1-.31-.708l.002-.059v.003-.016c0-.294.122-.559.317-.748.19-.196.454-.318.748-.318h.029c.297 0 .567.121.76.317.202.188.327.455.327.751v.027c0 .296-.125.563-.325.75l-.001.001a1.068 1.068 0 0 1-.76.317H15.39Z"/></svg>