<svg width="24" height="23" viewBox="0 0 24 23" fill="none" xmlns="http://www.w3.org/2000/svg">
<path d="M4.69428 19.4062C4.22835 19.4062 3.82963 19.2516 3.49812 18.9422C3.16604 18.6322 3 18.2598 3 17.825V8.3375C3 7.90266 3.16604 7.53054 3.49812 7.22114C3.82963 6.91121 4.22835 6.75625 4.69428 6.75625H7.36276L8.92997 5.175H14.0128V8.3375H16.5542V10.7094H19.9428V17.825C19.9428 18.2598 19.777 18.6322 19.4455 18.9422C19.1134 19.2516 18.7144 19.4062 18.2485 19.4062H4.69428ZM11.4714 16.6391C12.5303 16.6391 13.4305 16.2933 14.1721 15.6018C14.913 14.9097 15.2835 14.0695 15.2835 13.0813C15.2835 12.093 14.913 11.2528 14.1721 10.5607C13.4305 9.86921 12.5303 9.52344 11.4714 9.52344C10.4125 9.52344 9.51223 9.86921 8.7707 10.5607C8.02974 11.2528 7.65926 12.093 7.65926 13.0813C7.65926 14.0695 8.02974 14.9097 8.7707 15.6018C9.51223 16.2933 10.4125 16.6391 11.4714 16.6391ZM11.4714 15.0578C10.8784 15.0578 10.3772 14.8667 9.96771 14.4846C9.55826 14.1025 9.35353 13.6347 9.35353 13.0813C9.35353 12.5278 9.55826 12.06 9.96771 11.6779C10.3772 11.2958 10.8784 11.1047 11.4714 11.1047C12.0644 11.1047 12.5656 11.2958 12.975 11.6779C13.3845 12.06 13.5892 12.5278 13.5892 13.0813C13.5892 13.6347 13.3845 14.1025 12.975 14.4846C12.5656 14.8667 12.0644 15.0578 11.4714 15.0578ZM18.1114 8.3375V6.75625H16.4172V5.175H18.1114V3.59375H19.8057V5.175H21.5V6.75625H19.8057V8.3375H18.1114Z" fill="black"/>
</svg>
