<svg width="19" height="17" viewBox="0 0 19 17" fill="none" xmlns="http://www.w3.org/2000/svg">
<path d="M1.69428 16.4062C1.22835 16.4062 0.82963 16.2516 0.498117 15.9422C0.166039 15.6322 0 15.2598 0 14.825V5.3375C0 4.90266 0.166039 4.53054 0.498117 4.22114C0.82963 3.91121 1.22835 3.75625 1.69428 3.75625H4.36276L5.92997 2.175H11.0128V5.3375H13.5542V7.70938H16.9428V14.825C16.9428 15.2598 16.777 15.6322 16.4455 15.9422C16.1134 16.2516 15.7144 16.4062 15.2485 16.4062H1.69428ZM8.47138 13.6391C9.5303 13.6391 10.4305 13.2933 11.1721 12.6018C11.913 11.9097 12.2835 11.0695 12.2835 10.0813C12.2835 9.09297 11.913 8.2528 11.1721 7.56074C10.4305 6.86921 9.5303 6.52344 8.47138 6.52344C7.41246 6.52344 6.51223 6.86921 5.7707 7.56074C5.02974 8.2528 4.65926 9.09297 4.65926 10.0813C4.65926 11.0695 5.02974 11.9097 5.7707 12.6018C6.51223 13.2933 7.41246 13.6391 8.47138 13.6391ZM8.47138 12.0578C7.87838 12.0578 7.37716 11.8667 6.96771 11.4846C6.55826 11.1025 6.35353 10.6347 6.35353 10.0813C6.35353 9.52781 6.55826 9.06003 6.96771 8.67789C7.37716 8.29576 7.87838 8.10469 8.47138 8.10469C9.06438 8.10469 9.5656 8.29576 9.97505 8.67789C10.3845 9.06003 10.5892 9.52781 10.5892 10.0813C10.5892 10.6347 10.3845 11.1025 9.97505 11.4846C9.5656 11.8667 9.06438 12.0578 8.47138 12.0578ZM15.1114 5.3375V3.75625H13.4172V2.175H15.1114V0.59375H16.8057V2.175H18.5V3.75625H16.8057V5.3375H15.1114Z" fill="white"/>
</svg>
