<svg width="40" height="40" viewBox="0 0 40 40" fill="none" xmlns="http://www.w3.org/2000/svg">
<path d="M15.1519 20.624C17.8558 20.624 20.0478 18.4893 20.0478 15.856C20.0478 13.2227 17.8558 11.088 15.1519 11.088C12.4479 11.088 10.2559 13.2227 10.2559 15.856C10.2559 18.4893 12.4479 20.624 15.1519 20.624Z" stroke="#020202" stroke-miterlimit="10" stroke-linecap="round" stroke-linejoin="round"/>
<path d="M21.4881 20.96C23.7921 22.688 25.3121 25.344 25.4721 28.352C25.4881 28.656 25.2321 28.912 24.9281 28.912H5.36003C5.04003 28.912 4.78403 28.656 4.80003 28.352C4.97603 25.344 6.49604 22.688 8.81604 20.96" stroke="#020202" stroke-miterlimit="10" stroke-linecap="round" stroke-linejoin="round"/>
<path d="M18.4481 19.376H18.4321" stroke="#020202" stroke-width="3.2" stroke-miterlimit="10" stroke-linecap="round" stroke-linejoin="round"/>
<path d="M28.2079 23.296C30.046 23.296 31.5359 21.849 31.5359 20.064C31.5359 18.279 30.046 16.832 28.2079 16.832C26.37 16.832 24.8799 18.279 24.8799 20.064C24.8799 21.849 26.37 23.296 28.2079 23.296Z" stroke="#020202" stroke-miterlimit="10" stroke-linecap="round" stroke-linejoin="round"/>
<path d="M33.2799 24.208C34.3839 25.344 35.1039 26.864 35.1999 28.528C35.2159 28.752 35.0399 28.912 34.8159 28.912H28.6079" stroke="#020202" stroke-miterlimit="10" stroke-linecap="round" stroke-linejoin="round"/>
</svg>
