<svg width="295" height="293" viewBox="0 0 295 293" fill="none" xmlns="http://www.w3.org/2000/svg">
<path d="M178.952 11L186.569 12.5497C183.837 24.362 181.414 35.8082 178.463 47.1446C177.547 50.659 178.463 52.6968 181.182 54.9909C189.972 62.3126 198.413 70.0491 207.242 77.3586C209.819 79.5185 210.18 81.5075 209.459 84.4728C206.713 95.5773 204.084 106.718 201.726 117.908C201.593 118.944 201.695 119.995 202.027 120.991C202.358 121.986 202.91 122.903 203.646 123.68C212.784 131.978 222.218 139.995 232 148.427L226.845 153.931C224.048 151.564 221.432 149.379 218.854 147.158C213.505 142.558 207.628 138.385 203.002 133.186C197.743 127.292 192.549 127.085 185.435 129.684C176.027 133.186 166.103 135.541 156.54 138.58C155.45 139.021 154.241 139.127 153.085 138.882C151.928 138.636 150.882 138.053 150.096 137.213C139.862 128.22 129.41 119.409 119.267 110.367C118.601 109.625 118.109 108.757 117.824 107.82C117.54 106.884 117.469 105.901 117.618 104.937C120.401 91.9775 123.409 79.0588 126.639 66.1809C126.964 65.2599 127.493 64.4154 128.191 63.7041C128.889 62.9927 129.74 62.4309 130.686 62.0563C142.251 58.3223 153.889 54.812 165.6 51.5253C168.848 50.6101 170.163 49.0848 170.82 45.9853C173.385 34.3317 176.207 22.7879 178.952 11ZM173.797 125.62C179.159 124.01 184.61 122.582 189.843 120.739C190.72 120.376 191.509 119.845 192.159 119.18C192.809 118.514 193.306 117.728 193.619 116.871C196.308 106.637 198.731 96.3542 200.888 86.0225C201.018 85.0628 200.931 84.0879 200.634 83.1623C200.336 82.2367 199.834 81.3815 199.161 80.6533C191.162 73.3886 182.969 66.3192 174.583 59.4449C173.759 58.8629 172.813 58.4532 171.809 58.2428C170.805 58.0325 169.765 58.0263 168.758 58.2247C158.267 61.1533 147.845 64.3179 137.491 67.7184C136.551 68.1044 135.707 68.6733 135.015 69.388C134.322 70.1028 133.796 70.9475 133.47 71.8673C130.892 81.898 128.701 92.0507 126.162 102.118C125.778 103.256 125.787 104.48 126.188 105.612C126.589 106.744 127.361 107.726 128.392 108.415C135.622 114.516 142.827 120.52 149.696 126.926C153.292 130.27 156.578 131.649 161.502 129.477C165.394 127.707 169.724 126.853 173.861 125.62H173.797Z" fill="#0984CB" fill-opacity="0.06"/>
<path d="M0 19.5853L5.30992 14.1917C14.3316 21.9648 23.3534 29.4573 31.9498 37.3769C35.2878 40.452 38.0974 41.0377 42.4665 39.5612C53.3828 35.9004 64.5182 32.9107 75.5118 29.4695C76.6015 29.0279 77.8103 28.9223 78.9669 29.1676C80.1236 29.4129 81.1693 29.9967 81.9559 30.8362C92.1762 39.8662 102.577 48.6888 112.759 57.7677C113.411 58.4278 113.906 59.2128 114.211 60.0695C114.515 60.9263 114.622 61.835 114.524 62.7342C111.646 75.8156 108.574 88.8644 105.309 101.881C105.002 102.805 104.487 103.656 103.8 104.375C103.112 105.093 102.269 105.662 101.327 106.042C88.0778 110.264 74.6869 114.096 61.3735 118.245C60.2777 118.681 59.0641 118.778 57.9066 118.521C56.7491 118.265 55.7069 117.668 54.9294 116.817C44.7091 107.811 34.3083 99.013 24.1267 89.9708C23.4606 89.2279 22.9682 88.36 22.6816 87.4241C22.3951 86.4882 22.3209 85.5055 22.4641 84.5405C24.887 73.0577 27.7998 61.6726 30.197 50.1776C30.344 49.1429 30.2556 48.0904 29.9378 47.0906C29.6199 46.0909 29.0799 45.1671 28.354 44.3813C19.1776 36.0834 9.74346 28.0784 0 19.5853ZM78.8885 104.919L78.9529 105.139C84.3273 103.528 89.7532 102.088 95.0116 100.258C95.8313 99.9303 96.5705 99.4458 97.1827 98.8347C97.7949 98.2235 98.2668 97.499 98.5687 96.7067C101.232 86.2123 103.69 75.6651 105.941 65.0649C106.038 64.3051 105.963 63.5344 105.721 62.8042C105.479 62.0741 105.075 61.4012 104.536 60.8306C96.2617 53.3991 87.8844 46.0652 79.3138 38.951C78.5221 38.428 77.622 38.0705 76.6731 37.9022C75.7243 37.7339 74.7485 37.7586 73.8105 37.9748C63.1649 40.936 52.5923 44.1128 42.0928 47.5052C41.2144 47.8613 40.4271 48.3921 39.7844 49.0617C39.1418 49.7312 38.6587 50.5238 38.3681 51.3856C35.7131 61.7173 33.2901 72.11 31.0992 82.5637C31.0324 83.4518 31.1592 84.3434 31.4718 85.1831C31.7845 86.0228 32.2761 86.7927 32.9164 87.4448C36.7828 91.252 41.1004 94.7664 45.3019 98.293C50.1865 102.418 54.6201 108.836 60.2006 109.922C65.7812 111.008 72.5733 106.762 78.8498 104.919H78.8885Z" fill="#0984CB" fill-opacity="0.06"/>
<path d="M196.996 88.519L191.75 94.0224L161.785 68.1282L166.941 62.5515L196.996 88.519Z" fill="#0984CB" fill-opacity="0.06"/>
<path d="M44.0136 61.9656L41.8354 55.5103L78.2574 44.5278L80.4226 51.0075L44.0136 61.9656Z" fill="#0984CB" fill-opacity="0.06"/>
<path d="M83.0812 243L75.606 241.475C77.7455 232.201 79.1374 222.853 82.1403 213.994C84.8468 206.026 83.0425 200.937 76.07 195.897C68.0665 190.113 60.9264 183.219 53.6833 176.532C52.9312 175.774 52.3564 174.875 51.9966 173.893C51.6368 172.911 51.5001 171.868 51.5954 170.833C54.3362 157.865 57.3435 144.947 60.6171 132.077C60.9308 131.152 61.4495 130.301 62.1386 129.582C62.8276 128.862 63.671 128.29 64.6124 127.904C77.9903 123.649 91.4671 119.606 105.043 115.774C105.982 115.599 106.951 115.617 107.883 115.827C108.815 116.038 109.688 116.436 110.443 116.994C121.02 125.853 131.455 134.871 141.748 144.048C142.414 144.792 142.905 145.663 143.187 146.602C143.469 147.54 143.537 148.525 143.385 149.49C140.601 162.45 137.594 175.364 134.363 188.234C134.043 189.154 133.52 190 132.829 190.715C132.138 191.43 131.295 191.999 130.355 192.383C118.949 196.044 107.44 199.473 95.9049 202.78C94.7511 203.012 93.704 203.582 92.9127 204.411C92.1213 205.239 91.626 206.282 91.4972 207.392C89.2417 217.813 86.7285 228.137 84.2927 238.57C83.9189 239.974 83.5065 241.414 83.0812 243ZM107.414 191.675C112.763 190.064 118.201 188.661 123.434 186.733C124.386 186.371 125.248 185.826 125.967 185.133C126.685 184.44 127.245 183.614 127.61 182.706C130.291 172.395 132.662 161.961 134.866 151.565C134.985 150.733 134.916 149.888 134.663 149.084C134.409 148.28 133.978 147.536 133.397 146.903C125.251 139.582 116.977 132.394 108.51 125.426C107.685 124.844 106.739 124.435 105.735 124.224C104.731 124.014 103.691 124.008 102.684 124.206C92.0556 127.135 81.4959 130.299 71.005 133.7C70.1399 134.068 69.3667 134.606 68.736 135.276C68.1053 135.947 67.6312 136.736 67.3447 137.593C64.7069 147.924 62.2797 158.305 60.0629 168.734C59.9376 169.558 59.9993 170.398 60.2437 171.197C60.4882 171.997 60.9099 172.738 61.4806 173.371C69.7376 180.79 78.1536 188.055 86.7285 195.165C87.4384 195.656 88.2489 196.001 89.1079 196.177C89.9669 196.354 90.8553 196.358 91.7162 196.19C97.0519 194.921 102.207 193.188 107.414 191.675Z" fill="#0984CB" fill-opacity="0.06"/>
<path d="M99.2304 185.806L93.9849 191.285L65.2314 166.44L70.4769 160.949L99.2304 185.806Z" fill="#0984CB" fill-opacity="0.06"/>
<path d="M255.132 158L259.564 158.902C257.974 165.775 256.564 172.436 254.847 179.032C254.314 181.077 254.847 182.263 256.429 183.598C261.544 187.859 266.456 192.36 271.593 196.614C273.093 197.871 273.303 199.028 272.883 200.754C271.286 207.215 269.756 213.698 268.383 220.21C268.306 220.812 268.366 221.424 268.558 222.003C268.751 222.583 269.073 223.116 269.501 223.568C274.818 228.397 280.308 233.062 286 237.969L283 241.171C281.373 239.793 279.85 238.522 278.35 237.23C275.238 234.553 271.818 232.125 269.126 229.1C266.066 225.67 263.044 225.549 258.904 227.062C253.429 229.1 247.655 230.47 242.09 232.238C241.456 232.495 240.752 232.557 240.079 232.414C239.406 232.271 238.798 231.931 238.34 231.443C232.385 226.21 226.303 221.083 220.401 215.821C220.013 215.389 219.727 214.884 219.561 214.339C219.396 213.795 219.355 213.223 219.441 212.662C221.061 205.121 222.811 197.603 224.691 190.11C224.88 189.574 225.188 189.082 225.594 188.668C226 188.254 226.495 187.927 227.046 187.709C233.775 185.537 240.547 183.494 247.362 181.582C249.252 181.049 250.017 180.161 250.399 178.358C251.892 171.577 253.534 164.859 255.132 158ZM252.132 224.697C255.252 223.76 258.424 222.929 261.469 221.857C261.979 221.646 262.438 221.337 262.816 220.949C263.195 220.562 263.484 220.105 263.666 219.606C265.231 213.651 266.641 207.667 267.896 201.655C267.972 201.097 267.921 200.53 267.748 199.991C267.575 199.452 267.283 198.955 266.891 198.531C262.236 194.304 257.469 190.19 252.589 186.19C252.109 185.851 251.559 185.613 250.975 185.49C250.391 185.368 249.785 185.364 249.199 185.48C243.095 187.184 237.03 189.026 231.005 191.004C230.459 191.229 229.968 191.56 229.564 191.976C229.161 192.392 228.855 192.883 228.666 193.418C227.166 199.255 225.891 205.163 224.413 211.021C224.19 211.683 224.195 212.395 224.428 213.054C224.662 213.713 225.111 214.285 225.711 214.685C229.918 218.236 234.11 221.729 238.108 225.457C240.2 227.403 242.112 228.205 244.977 226.941C247.242 225.911 249.762 225.414 252.169 224.697H252.132Z" fill="#0984CB" fill-opacity="0.06"/>
<path d="M151 162.996L154.09 159.857C159.34 164.38 164.589 168.74 169.591 173.349C171.534 175.138 173.169 175.479 175.711 174.62C182.063 172.489 188.543 170.75 194.94 168.747C195.574 168.49 196.278 168.429 196.951 168.572C197.624 168.714 198.232 169.054 198.69 169.543C204.637 174.797 210.689 179.931 216.614 185.214C216.993 185.598 217.282 186.055 217.459 186.553C217.636 187.052 217.698 187.581 217.641 188.104C215.966 195.716 214.179 203.309 212.279 210.883C212.1 211.421 211.801 211.916 211.401 212.334C211.001 212.752 210.51 213.083 209.962 213.304C202.252 215.761 194.46 217.991 186.713 220.405C186.075 220.659 185.369 220.716 184.696 220.566C184.022 220.417 183.416 220.07 182.963 219.574C177.016 214.334 170.964 209.214 165.039 203.953C164.652 203.521 164.365 203.015 164.198 202.471C164.032 201.926 163.988 201.354 164.072 200.793C165.482 194.111 167.177 187.486 168.572 180.797C168.657 180.195 168.606 179.583 168.421 179.001C168.236 178.419 167.921 177.882 167.499 177.424C162.159 172.596 156.67 167.938 151 162.996ZM196.905 212.651L196.942 212.779C200.07 211.842 203.227 211.004 206.287 209.939C206.764 209.748 207.194 209.466 207.55 209.111C207.907 208.755 208.181 208.333 208.357 207.872C209.907 201.766 211.337 195.628 212.647 189.46C212.703 189.018 212.66 188.57 212.519 188.145C212.378 187.72 212.143 187.328 211.829 186.996C207.014 182.672 202.14 178.404 197.152 174.265C196.692 173.96 196.168 173.752 195.616 173.654C195.064 173.556 194.496 173.571 193.95 173.697C187.755 175.42 181.603 177.268 175.494 179.242C174.982 179.449 174.524 179.758 174.15 180.148C173.776 180.538 173.495 180.999 173.326 181.5C171.781 187.512 170.371 193.56 169.096 199.643C169.058 200.159 169.131 200.678 169.313 201.167C169.495 201.655 169.781 202.103 170.154 202.483C172.404 204.698 174.916 206.743 177.361 208.795C180.203 211.196 182.783 214.931 186.031 215.562C189.278 216.194 193.23 213.723 196.882 212.651H196.905Z" fill="#0984CB" fill-opacity="0.06"/>
<path d="M265.631 203.108L262.579 206.31L245.142 191.243L248.142 187.998L265.631 203.108Z" fill="#0984CB" fill-opacity="0.06"/>
<path d="M176.611 187.657L175.344 183.9L196.538 177.51L197.798 181.28L176.611 187.657Z" fill="#0984CB" fill-opacity="0.06"/>
<path d="M199.345 293L194.995 292.112C196.24 286.716 197.05 281.277 198.797 276.121C200.372 271.485 199.322 268.524 195.265 265.591C190.608 262.225 186.453 258.213 182.238 254.322C181.801 253.882 181.466 253.358 181.257 252.787C181.047 252.216 180.968 251.609 181.023 251.006C182.618 243.46 184.368 235.943 186.273 228.454C186.455 227.916 186.757 227.421 187.158 227.002C187.559 226.583 188.05 226.25 188.598 226.026C196.382 223.55 204.224 221.197 212.124 218.968C212.671 218.866 213.235 218.876 213.777 218.999C214.319 219.121 214.827 219.353 215.266 219.678C221.421 224.833 227.493 230.08 233.483 235.42C233.87 235.853 234.156 236.36 234.32 236.906C234.484 237.452 234.524 238.025 234.435 238.587C232.815 246.128 231.065 253.643 229.186 261.132C228.999 261.667 228.695 262.159 228.293 262.576C227.891 262.992 227.4 263.323 226.853 263.546C220.216 265.676 213.519 267.672 206.807 269.596C206.135 269.731 205.526 270.063 205.066 270.545C204.605 271.027 204.317 271.634 204.242 272.28C202.93 278.344 201.467 284.351 200.05 290.422C199.832 291.239 199.592 292.077 199.345 293ZM213.504 263.134C216.616 262.197 219.781 261.38 222.826 260.258C223.38 260.048 223.881 259.731 224.3 259.327C224.718 258.924 225.043 258.443 225.256 257.915C226.816 251.915 228.196 245.844 229.478 239.794C229.548 239.31 229.507 238.818 229.36 238.35C229.212 237.883 228.961 237.45 228.623 237.082C223.883 232.821 219.069 228.639 214.141 224.584C213.662 224.246 213.111 224.007 212.527 223.885C211.943 223.762 211.338 223.759 210.752 223.874C204.567 225.578 198.422 227.42 192.318 229.399C191.814 229.613 191.364 229.926 190.997 230.316C190.63 230.706 190.354 231.166 190.188 231.664C188.653 237.676 187.24 243.716 185.95 249.785C185.878 250.264 185.913 250.753 186.056 251.218C186.198 251.683 186.443 252.115 186.775 252.483C191.58 256.8 196.477 261.028 201.467 265.165C201.88 265.451 202.352 265.651 202.852 265.754C203.351 265.857 203.868 265.859 204.369 265.761C207.474 265.023 210.474 264.015 213.504 263.134Z" fill="#0984CB" fill-opacity="0.06"/>
<path d="M208.742 259.719L205.69 262.907L188.958 248.45L192.01 245.255L208.742 259.719Z" fill="#0984CB" fill-opacity="0.06"/>
<path d="M312.132 0L316.564 0.901794C314.974 7.77531 313.564 14.4358 311.847 21.0324C311.314 23.0774 311.847 24.2632 313.429 25.5982C318.544 29.8586 323.456 34.3605 328.593 38.6138C330.093 39.8707 330.303 41.0281 329.883 42.7536C328.286 49.2152 326.756 55.6982 325.383 62.2096C325.306 62.8125 325.366 63.4241 325.558 64.0033C325.751 64.5826 326.073 65.1162 326.501 65.5682C331.818 70.3967 337.308 75.0619 343 79.9685L340 83.171C338.373 81.7934 336.85 80.5224 335.35 79.2301C332.238 76.5531 328.818 74.1246 326.126 71.0997C323.066 67.6701 320.044 67.5493 315.904 69.0618C310.429 71.0997 304.655 72.4702 299.09 74.2382C298.456 74.4952 297.752 74.5567 297.079 74.4139C296.406 74.2712 295.798 73.9315 295.34 73.443C289.385 68.2097 283.303 63.083 277.401 57.8213C277.013 57.3894 276.727 56.8842 276.561 56.3394C276.396 55.7945 276.355 55.2225 276.441 54.6615C278.061 47.1205 279.811 39.6032 281.691 32.1096C281.88 31.5737 282.188 31.0823 282.594 30.6683C283 30.2544 283.495 29.9274 284.046 29.7095C290.775 27.5367 297.547 25.494 304.362 23.5816C306.252 23.049 307.017 22.1614 307.399 20.3578C308.892 13.5766 310.534 6.85932 312.132 0ZM309.132 66.6973C312.252 65.76 315.424 64.9292 318.469 63.857C318.979 63.6458 319.438 63.3367 319.816 62.9493C320.195 62.5619 320.484 62.1045 320.666 61.606C322.231 55.6509 323.641 49.6673 324.896 43.6554C324.972 43.0969 324.921 42.5296 324.748 41.991C324.575 41.4524 324.283 40.9548 323.891 40.531C319.236 36.3037 314.469 32.19 309.589 28.1899C309.109 27.8513 308.559 27.6128 307.975 27.4904C307.391 27.368 306.785 27.3644 306.199 27.4799C300.095 29.184 294.03 31.0255 288.005 33.0042C287.459 33.2289 286.968 33.5599 286.564 33.9758C286.161 34.3917 285.855 34.8833 285.666 35.4185C284.166 41.2553 282.891 47.1631 281.413 53.0212C281.19 53.6832 281.195 54.3954 281.428 55.0544C281.662 55.7133 282.111 56.2846 282.711 56.6852C286.918 60.2356 291.11 63.7291 295.108 67.457C297.2 69.4026 299.112 70.205 301.977 68.9411C304.242 67.9115 306.762 67.4144 309.169 66.6973H309.132Z" fill="#0984CB" fill-opacity="0.06"/>
<path d="M208 4.99571L211.09 1.85718C216.34 6.38035 221.589 10.7402 226.591 15.3486C228.534 17.138 230.169 17.4788 232.711 16.6196C239.063 14.4894 245.543 12.7497 251.94 10.7473C252.574 10.4903 253.278 10.4289 253.951 10.5716C254.624 10.7144 255.232 11.0541 255.69 11.5426C261.637 16.7971 267.689 21.931 273.614 27.2139C273.993 27.5981 274.282 28.0548 274.459 28.5534C274.636 29.0519 274.698 29.5807 274.641 30.1039C272.966 37.7159 271.179 45.309 269.279 52.8831C269.1 53.4212 268.801 53.9163 268.401 54.3343C268.001 54.7523 267.51 55.0833 266.962 55.3045C259.252 57.7613 251.46 59.9909 243.713 62.4052C243.075 62.6591 242.369 62.7155 241.696 62.5663C241.022 62.4171 240.416 62.0699 239.963 61.5744C234.016 56.3341 227.964 51.2144 222.039 45.9528C221.652 45.5205 221.365 45.0155 221.198 44.4709C221.032 43.9263 220.988 43.3545 221.072 42.793C222.482 36.1112 224.177 29.4862 225.572 22.7973C225.657 22.1952 225.606 21.5827 225.421 21.001C225.236 20.4193 224.921 19.8817 224.499 19.4244C219.159 14.5959 213.67 9.93782 208 4.99571ZM253.905 54.6512L253.942 54.779C257.07 53.8417 260.227 53.0038 263.287 51.9387C263.764 51.7482 264.194 51.4663 264.55 51.1107C264.907 50.755 265.181 50.3334 265.357 49.8724C266.907 43.7658 268.337 37.6283 269.647 31.4602C269.703 31.018 269.66 30.5696 269.519 30.1447C269.378 29.7198 269.143 29.3283 268.829 28.9962C264.014 24.6719 259.14 20.4043 254.152 16.2646C253.692 15.9603 253.168 15.7522 252.616 15.6543C252.064 15.5563 251.496 15.5707 250.95 15.6965C244.755 17.4196 238.603 19.2682 232.494 21.2422C231.982 21.4494 231.524 21.7583 231.15 22.1479C230.776 22.5375 230.495 22.9987 230.326 23.5002C228.781 29.5122 227.371 35.5597 226.096 41.6426C226.058 42.1594 226.131 42.6782 226.313 43.1669C226.495 43.6555 226.781 44.1035 227.154 44.4829C229.404 46.6984 231.916 48.7434 234.361 50.7955C237.203 53.1955 239.783 56.9305 243.031 57.5625C246.278 58.1945 250.23 55.7234 253.882 54.6512H253.905Z" fill="#0984CB" fill-opacity="0.06"/>
<path d="M233.611 29.6567L232.344 25.9004L253.538 19.5098L254.798 23.2803L233.611 29.6567Z" fill="#0984CB" fill-opacity="0.06"/>
<path d="M256.345 135L251.995 134.112C253.24 128.716 254.05 123.277 255.797 118.121C257.372 113.485 256.322 110.524 252.265 107.591C247.608 104.225 243.453 100.213 239.238 96.3222C238.801 95.8816 238.466 95.3584 238.257 94.787C238.047 94.2155 237.968 93.6087 238.023 93.0061C239.618 85.4604 241.368 77.9431 243.273 70.4542C243.455 69.916 243.757 69.4209 244.158 69.0021C244.559 68.5833 245.05 68.2504 245.598 68.0257C253.382 65.5499 261.224 63.1972 269.124 60.9676C269.671 60.8655 270.235 60.8762 270.777 60.9987C271.319 61.1212 271.827 61.3528 272.266 61.6777C278.421 66.8328 284.493 72.0802 290.483 77.42C290.87 77.8533 291.156 78.36 291.32 78.9061C291.484 79.4522 291.524 80.0253 291.435 80.5869C289.815 88.1279 288.065 95.6429 286.186 103.132C285.999 103.667 285.695 104.159 285.293 104.576C284.891 104.992 284.4 105.323 283.853 105.546C277.216 107.676 270.519 109.672 263.807 111.596C263.135 111.731 262.526 112.063 262.066 112.545C261.605 113.027 261.317 113.634 261.242 114.28C259.93 120.344 258.467 126.351 257.05 132.422C256.832 133.239 256.592 134.077 256.345 135ZM270.504 105.134C273.616 104.197 276.781 103.38 279.826 102.258C280.38 102.048 280.881 101.731 281.3 101.327C281.718 100.924 282.043 100.443 282.256 99.9151C283.816 93.915 285.196 87.8439 286.478 81.794C286.548 81.3104 286.507 80.8182 286.36 80.3504C286.212 79.8826 285.961 79.45 285.623 79.0816C280.883 74.8211 276.069 70.6388 271.141 66.5843C270.662 66.2456 270.111 66.0072 269.527 65.8848C268.943 65.7624 268.338 65.7587 267.752 65.8742C261.567 67.5784 255.422 69.4198 249.318 71.3986C248.814 71.613 248.364 71.9256 247.997 72.3159C247.63 72.7062 247.354 73.1655 247.188 73.6637C245.653 79.6757 244.24 85.716 242.95 91.7848C242.878 92.2642 242.913 92.7529 243.056 93.2181C243.198 93.6834 243.443 94.1146 243.775 94.4831C248.58 98.8003 253.477 103.028 258.467 107.165C258.88 107.451 259.352 107.651 259.852 107.754C260.351 107.857 260.868 107.859 261.369 107.761C264.474 107.023 267.474 106.015 270.504 105.134Z" fill="#0984CB" fill-opacity="0.06"/>
<path d="M265.742 101.719L262.69 104.907L245.958 90.45L249.01 87.2546L265.742 101.719Z" fill="#0984CB" fill-opacity="0.06"/>
</svg>
