<svg width="28" height="28" viewBox="0 0 28 28" fill="none" xmlns="http://www.w3.org/2000/svg">
<path d="M17.5 10.9375C17.5 11.179 17.696 11.375 17.9375 11.375H24.0625C24.304 11.375 24.5 11.179 24.5 10.9375C24.5 10.696 24.304 10.5 24.0625 10.5H17.9375C17.696 10.5 17.5 10.696 17.5 10.9375ZM17.9375 13.125H24.0625C24.304 13.125 24.5 12.929 24.5 12.6875C24.5 12.446 24.304 12.25 24.0625 12.25H17.9375C17.696 12.25 17.5 12.446 17.5 12.6875C17.5 12.929 17.696 13.125 17.9375 13.125ZM17.9375 14.875H24.0625C24.304 14.875 24.5 14.679 24.5 14.4375C24.5 14.196 24.304 14 24.0625 14H17.9375C17.696 14 17.5 14.196 17.5 14.4375C17.5 14.679 17.696 14.875 17.9375 14.875ZM17.9375 16.625H24.0625C24.304 16.625 24.5 16.429 24.5 16.1875C24.5 15.946 24.304 15.75 24.0625 15.75H17.9375C17.696 15.75 17.5 15.946 17.5 16.1875C17.5 16.429 17.696 16.625 17.9375 16.625ZM14 15.75V10.5C14 10.017 13.608 9.625 13.125 9.625H12.25C11.767 9.625 11.375 10.017 11.375 10.5V15.75H10.5V12.25C10.5 11.767 10.108 11.375 9.625 11.375H8.75C8.267 11.375 7.875 11.767 7.875 12.25V15.75H7V11.375C7 10.892 6.608 10.5 6.125 10.5H5.25C4.767 10.5 4.375 10.892 4.375 11.375V15.75H3.9375C3.696 15.75 3.5 15.946 3.5 16.1875C3.5 16.429 3.696 16.625 3.9375 16.625H14.4375C14.679 16.625 14.875 16.429 14.875 16.1875C14.875 15.946 14.679 15.75 14.4375 15.75H14ZM6.125 15.75H5.25V11.375H6.125V15.75ZM9.625 15.75H8.75V12.25H9.625V15.75ZM13.125 15.75H12.25V10.5H13.125V15.75ZM25.375 3.5H2.625C1.17513 3.5 0 4.67513 0 6.125V20.125C0 21.5749 1.17513 22.75 2.625 22.75H10.5V25.375H9.1875C8.946 25.375 8.75 25.571 8.75 25.8125C8.75 26.054 8.946 26.25 9.1875 26.25H18.8125C19.054 26.25 19.25 26.054 19.25 25.8125C19.25 25.571 19.054 25.375 18.8125 25.375H17.5V22.75H25.375C26.8249 22.75 28 21.5749 28 20.125V6.125C28 4.67513 26.8249 3.5 25.375 3.5ZM16.625 25.375H11.375V22.75H16.625V25.375ZM27.125 20.125C27.125 21.0919 26.3419 21.875 25.375 21.875H2.625C1.65812 21.875 0.875 21.0919 0.875 20.125V6.125C0.875 5.15812 1.65812 4.375 2.625 4.375H25.375C26.3419 4.375 27.125 5.15812 27.125 6.125V20.125Z" fill="white"/>
</svg>
