<svg width="276" height="280" viewBox="0 0 276 280" fill="none" xmlns="http://www.w3.org/2000/svg">
<path d="M227.547 -10.0396L237.232 -8.06896C233.758 6.95095 230.677 21.5054 226.924 35.9201C225.761 40.3889 226.924 42.9801 230.382 45.8972C241.559 55.2071 252.293 65.0445 263.519 74.3388C266.796 77.0853 267.255 79.6144 266.337 83.3849C262.847 97.5049 259.504 111.671 256.505 125.9C256.336 127.217 256.466 128.554 256.887 129.82C257.308 131.085 258.01 132.251 258.946 133.239C270.566 143.79 282.562 153.985 295 164.707L288.445 171.704C284.889 168.694 281.562 165.917 278.284 163.093C271.483 157.243 264.01 151.937 258.127 145.327C251.441 137.832 244.836 137.568 235.79 140.873C223.827 145.327 211.208 148.321 199.048 152.185C197.663 152.746 196.126 152.881 194.655 152.569C193.184 152.257 191.855 151.514 190.854 150.447C177.842 139.011 164.552 127.808 151.654 116.311C150.807 115.367 150.181 114.263 149.82 113.072C149.458 111.882 149.368 110.632 149.557 109.406C153.097 92.9275 156.92 76.5008 161.028 60.1258C161.441 58.9548 162.114 57.881 163.002 56.9764C163.889 56.0719 164.971 55.3575 166.174 54.8812C180.88 50.1332 195.678 45.6696 210.569 41.4905C214.699 40.3268 216.37 38.3873 217.206 34.4461C220.467 19.6279 224.056 4.94933 227.547 -10.0396ZM220.992 135.706C227.809 133.658 234.741 131.843 241.395 129.5C242.511 129.038 243.513 128.363 244.34 127.516C245.166 126.67 245.798 125.67 246.197 124.581C249.616 111.568 252.697 98.4928 255.439 85.3555C255.605 84.1352 255.494 82.8955 255.116 81.7186C254.737 80.5416 254.099 79.4542 253.243 78.5283C243.072 69.2908 232.655 60.3016 221.992 51.5607C220.943 50.8206 219.741 50.2996 218.464 50.0322C217.187 49.7647 215.865 49.7568 214.584 50.0091C201.244 53.733 187.992 57.7569 174.827 62.0809C173.632 62.5717 172.559 63.295 171.678 64.2039C170.797 65.1127 170.128 66.1868 169.714 67.3564C166.436 80.111 163.65 93.0206 160.422 105.822C159.933 107.268 159.945 108.825 160.455 110.265C160.965 111.704 161.946 112.953 163.257 113.828C172.451 121.586 181.612 129.22 190.346 137.367C194.919 141.618 199.098 143.371 205.358 140.61C210.307 138.36 215.813 137.274 221.074 135.706H220.992Z" fill="#906FCC"/>
<path d="M0 0.877309L6.75184 -5.98096C18.2234 3.90301 29.695 13.4301 40.6258 23.5003C44.8703 27.4104 48.4429 28.1552 53.9984 26.2777C67.879 21.6228 82.0382 17.8213 96.0172 13.4456C97.4027 12.8841 98.9399 12.7498 100.411 13.0617C101.881 13.3736 103.211 14.116 104.211 15.1835C117.207 26.6656 130.432 37.884 143.378 49.4282C144.208 50.2677 144.837 51.2658 145.225 52.3552C145.612 53.4446 145.748 54.6 145.624 55.7434C141.964 72.3771 138.058 88.9693 133.906 105.52C133.516 106.696 132.861 107.778 131.987 108.691C131.113 109.605 130.04 110.328 128.842 110.811C111.995 116.18 94.9683 121.052 78.0396 126.328C76.6462 126.883 75.1031 127.006 73.6312 126.68C72.1594 126.354 70.8342 125.595 69.8456 124.512C56.8499 113.061 43.6248 101.874 30.6783 90.3761C29.8314 89.4315 29.2052 88.3279 28.8409 87.1379C28.4765 85.9479 28.3822 84.6983 28.5642 83.4713C31.6452 68.8703 35.3489 54.3935 38.397 39.777C38.584 38.4613 38.4716 37.123 38.0674 35.8518C37.6632 34.5806 36.9766 33.406 36.0536 32.4067C24.3853 21.8555 12.3893 11.6768 0 0.877309ZM100.311 109.384L100.393 109.663C107.227 107.615 114.126 105.784 120.812 103.456C121.854 103.04 122.794 102.424 123.573 101.647C124.351 100.87 124.951 99.9487 125.335 98.9412C128.722 85.5971 131.847 72.1857 134.709 58.7071C134.833 57.741 134.738 56.761 134.43 55.8325C134.122 54.904 133.608 54.0484 132.923 53.3229C122.402 43.8734 111.75 34.548 100.852 25.5019C99.845 24.8369 98.7004 24.3823 97.4939 24.1683C96.2874 23.9542 95.0466 23.9857 93.8539 24.2606C80.3175 28.0259 66.8739 32.0653 53.5231 36.3789C52.4062 36.8317 51.4052 37.5067 50.588 38.3581C49.7708 39.2094 49.1566 40.2172 48.787 41.3131C45.4111 54.4504 42.3302 67.6652 39.5442 80.9576C39.4593 82.0869 39.6205 83.2206 40.0181 84.2884C40.4156 85.3561 41.0408 86.335 41.8549 87.1642C46.7713 92.0053 52.2613 96.4741 57.6037 100.958C63.8148 106.203 69.4522 114.365 76.5482 115.745C83.6442 117.126 92.2807 111.727 100.262 109.384H100.311Z" fill="#906FCC"/>
<path d="M250.49 88.5297L243.821 95.5276L205.719 62.6018L212.274 55.5107L250.49 88.5297Z" fill="#906FCC"/>
<path d="M55.9654 54.7658L53.1958 46.5576L99.5082 32.5928L102.261 40.832L55.9654 54.7658Z" fill="#906FCC"/>
<path d="M105.642 284.961L96.1371 283.021C98.8575 271.229 100.627 259.343 104.446 248.078C107.887 237.946 105.593 231.476 96.7271 225.067C86.5501 217.712 77.4712 208.946 68.2612 200.443C67.3048 199.48 66.5739 198.337 66.1164 197.088C65.659 195.839 65.4851 194.513 65.6063 193.196C69.0915 176.708 72.9153 160.281 77.0779 143.916C77.4768 142.74 78.1364 141.658 79.0125 140.743C79.8887 139.828 80.9611 139.101 82.1581 138.61C99.1689 133.2 116.305 128.058 133.567 123.186C134.762 122.963 135.994 122.987 137.179 123.254C138.364 123.522 139.474 124.028 140.434 124.738C153.883 136.003 167.152 147.47 180.24 159.138C181.087 160.085 181.711 161.192 182.07 162.385C182.429 163.579 182.515 164.831 182.321 166.058C178.782 182.537 174.958 198.958 170.85 215.323C170.442 216.493 169.777 217.569 168.899 218.478C168.02 219.387 166.948 220.11 165.753 220.598C151.25 225.253 136.615 229.614 121.948 233.818C120.481 234.114 119.15 234.839 118.143 235.892C117.137 236.945 116.507 238.272 116.343 239.684C113.476 252.935 110.28 266.062 107.183 279.328C106.707 281.113 106.183 282.944 105.642 284.961ZM136.583 219.699C143.384 217.65 150.299 215.866 156.953 213.414C158.163 212.954 159.26 212.261 160.173 211.38C161.087 210.499 161.798 209.448 162.263 208.294C165.671 195.183 168.687 181.916 171.489 168.696C171.641 167.639 171.553 166.564 171.231 165.541C170.909 164.519 170.36 163.574 169.621 162.769C159.264 153.459 148.742 144.32 137.976 135.46C136.927 134.72 135.725 134.199 134.448 133.931C133.171 133.664 131.849 133.656 130.568 133.908C117.054 137.632 103.626 141.656 90.2866 145.98C89.1867 146.448 88.2035 147.132 87.4015 147.984C86.5995 148.837 85.9967 149.841 85.6324 150.93C82.2783 164.067 79.1919 177.266 76.3732 190.528C76.2139 191.575 76.2923 192.643 76.6031 193.66C76.914 194.676 77.4501 195.619 78.1759 196.424C88.6751 205.858 99.3764 215.095 110.28 224.136C111.183 224.76 112.213 225.199 113.305 225.423C114.398 225.647 115.527 225.653 116.622 225.44C123.407 223.826 129.962 221.623 136.583 219.699Z" fill="#906FCC"/>
<path d="M126.177 212.235L119.507 219.202L82.9451 187.61L89.615 180.628L126.177 212.235Z" fill="#906FCC"/>
</svg>
