<svg width="28" height="28" viewBox="0 0 28 28" fill="none" xmlns="http://www.w3.org/2000/svg">
<path d="M0.833374 0.5H3.43084C4.59037 0.5 5.17014 0.5 5.60662 0.8146C6.04311 1.1292 6.22644 1.67922 6.59312 2.77923L7.50004 5.5" stroke="#020202" stroke-linecap="round"/>
<path d="M24.1667 22.1667H8.41824C8.17457 22.1667 8.05275 22.1667 7.96032 22.1564C6.981 22.0467 6.31014 21.1159 6.5158 20.1522C6.5352 20.0612 6.57374 19.9457 6.65079 19.7145C6.73634 19.4579 6.7791 19.3295 6.82637 19.2164C7.31017 18.057 8.40467 17.268 9.65752 17.1757C9.77989 17.1667 9.91515 17.1667 10.1857 17.1667H19.1667" stroke="#020202" stroke-linecap="round" stroke-linejoin="round"/>
<path d="M18.6311 17.1667H13.5626C11.4305 17.1667 10.3645 17.1667 9.52963 16.6162C8.69473 16.0657 8.27481 15.0858 7.43494 13.1262L7.15358 12.4697C5.80443 9.32157 5.12984 7.74755 5.87086 6.62377C6.61186 5.5 8.32434 5.5 11.7493 5.5H20.5508C24.3824 5.5 26.2983 5.5 27.0209 6.74518C27.7436 7.99037 26.7929 9.65382 24.8919 12.9807L24.4194 13.8077C23.4828 15.4465 23.0146 16.266 22.2386 16.7163C21.4626 17.1667 20.5188 17.1667 18.6311 17.1667Z" stroke="#020202" stroke-linecap="round"/>
<path d="M24.5 26.3334C24.5 26.9777 23.9776 27.5 23.3333 27.5C22.689 27.5 22.1666 26.9777 22.1666 26.3334C22.1666 25.689 22.689 25.1667 23.3333 25.1667C23.9776 25.1667 24.5 25.689 24.5 26.3334Z" fill="#020202" stroke="#020202"/>
<path d="M11.1667 26.3334C11.1667 26.9777 10.6444 27.5 10 27.5C9.35571 27.5 8.83337 26.9777 8.83337 26.3334C8.83337 25.689 9.35571 25.1667 10 25.1667C10.6444 25.1667 11.1667 25.689 11.1667 26.3334Z" fill="#020202" stroke="#020202"/>
</svg>
