<svg width="35" height="35" viewBox="0 0 35 35" fill="none" xmlns="http://www.w3.org/2000/svg">
<path d="M0.833374 7.5H3.43084C4.59037 7.5 5.17014 7.5 5.60662 7.8146C6.04311 8.1292 6.22644 8.67922 6.59312 9.77923L7.50004 12.5" stroke="#020202" stroke-linecap="round"/>
<path d="M24.1667 29.1667H8.41824C8.17457 29.1667 8.05275 29.1667 7.96032 29.1564C6.981 29.0467 6.31014 28.1159 6.5158 27.1522C6.5352 27.0612 6.57374 26.9457 6.65079 26.7145C6.73634 26.4579 6.7791 26.3295 6.82637 26.2164C7.31017 25.057 8.40467 24.268 9.65752 24.1757C9.77989 24.1667 9.91515 24.1667 10.1857 24.1667H19.1667" stroke="#020202" stroke-linecap="round" stroke-linejoin="round"/>
<path d="M18.6311 24.1667H13.5626C11.4305 24.1667 10.3645 24.1667 9.52963 23.6162C8.69473 23.0657 8.27481 22.0858 7.43494 20.1262L7.15358 19.4697C5.80443 16.3216 5.12984 14.7476 5.87086 13.6238C6.61186 12.5 8.32434 12.5 11.7493 12.5H20.5508C24.3824 12.5 26.2983 12.5 27.0209 13.7452C27.7436 14.9904 26.7929 16.6538 24.8919 19.9807L24.4194 20.8077C23.4828 22.4465 23.0146 23.266 22.2386 23.7163C21.4626 24.1667 20.5188 24.1667 18.6311 24.1667Z" fill="#0984CB" stroke="#020202" stroke-linecap="round"/>
<path d="M24.5 33.3334C24.5 33.9777 23.9776 34.5 23.3333 34.5C22.689 34.5 22.1666 33.9777 22.1666 33.3334C22.1666 32.689 22.689 32.1667 23.3333 32.1667C23.9776 32.1667 24.5 32.689 24.5 33.3334Z" fill="#020202" stroke="#020202"/>
<path d="M11.1667 33.3334C11.1667 33.9777 10.6444 34.5 10 34.5C9.35571 34.5 8.83337 33.9777 8.83337 33.3334C8.83337 32.689 9.35571 32.1667 10 32.1667C10.6444 32.1667 11.1667 32.689 11.1667 33.3334Z" fill="#020202" stroke="#020202"/>
<circle cx="25" cy="10" r="9.5" fill="white" stroke="#020202"/>
</svg>
